# xmcd
#
# Track frame offsets: 
#        150
#        11628
#        21054
#        33479
#        44678
#        55278
#        67489
#        83531
#        96712
#        120267
#        129744
#        139815
#        151364
#        164566
#        174395
#        186630
#        202143
#        211468
#
# Disc length: 3089 seconds
#
# Revision: 7
# Processed by: cddbd v1.5.2PL0 Copyright (c) Steve Scherf et al.
# Submitted via: ExactAudioCopyFreeDBPlugin 1.0
#
DISCID=150c0f12
DTITLE=Creedence Clearwater Revival - 1995 - Forever - 36 Greatest Hit
DTITLE=s [CD 2]
DYEAR=1995
DGENRE=Country Rock
TTITLE0=Lookin' Out My Back Door
TTITLE1=Travelin' Band
TTITLE2=Down on the Corner
TTITLE3=Who'll Stop the Rain
TTITLE4=Fortunate Son
TTITLE5=Good Golly Miss Molly
TTITLE6=Long As I Can See the Light
TTITLE7=Sweet Hitch-Hiker
TTITLE8=Born on the Bayou
TTITLE9=Molina
TTITLE10=Hello Mary Lou
TTITLE11=Green River
TTITLE12=It Came out of the Sky
TTITLE13=Don't Look Now
TTITLE14=Commotion
TTITLE15=Before You Accuse Me
TTITLE16=Ooby Dooby
TTITLE17=I Put A Spell on You
EXTD=
EXTT0=
EXTT1=
EXTT2=
EXTT3=
EXTT4=
EXTT5=
EXTT6=
EXTT7=
EXTT8=
EXTT9=
EXTT10=
EXTT11=
EXTT12=
EXTT13=
EXTT14=
EXTT15=
EXTT16=
EXTT17=
PLAYORDER=
